PathFileType	3	(X/Y/Z)	D:\Vicon Setup\UG\Test1\New Session\NewSession10.trc
DataRate	CameraRate	NumFrames	NumMarkers	Units	OrigDataRate	OrigDataStartFrame	OrigNumFrames
100.0	100.0	12	27	mm	100.0	526	353	
Frame#	Time	Sternum			LShoulder			RShoulder			LASIS			RASIS			RPSIS			LPSIS			RKneeLateral			RKneeMedial			RFibulaHead			RMidShank			RAnkleLateral			RAnkleMedial			RHeel			RMT5			RMT2			RToe			LKneeLateral			LKneeMedial			LFibulaHead			LMidShank			LAnkleLateral			LAnkleMedial			LHeel			LMT5			LMT2			LToe			
		X1	Y1	Z1	X2	Y2	Z2	X3	Y3	Z3	X4	Y4	Z4	X5	Y5	Z5	X6	Y6	Z6	X7	Y7	Z7	X8	Y8	Z8	X9	Y9	Z9	X10	Y10	Z10	X11	Y11	Z11	X12	Y12	Z12	X13	Y13	Z13	X14	Y14	Z14	X15	Y15	Z15	X16	Y16	Z16	X17	Y17	Z17	X18	Y18	Z18	X19	Y19	Z19	X20	Y20	Z20	X21	Y21	Z21	X22	Y22	Z22	X23	Y23	Z23	X24	Y24	Z24	X25	Y25	Z25	X26	Y26	Z26	X27	Y27	Z27	
526	5.25	-226.4697	1331.8651	-2060.376	-49.223377	1409.6497	-2165.5466	-406.68362	1385.6482	-2134.6775	-126.06968	956.41003	-2109.2949	-384.42447	975.44531	-2126.4485	-292.58566	989.31848	-2296.8599	-163.49649	974.35669	-2293.2915	-393.1915	529.09387	-2311.6501	-265.42761	502.14725	-2286.7163	-394.33322	453.05768	-2348.1458	-304.52362	298.23709	-2401.5239	-351.84012	146.08054	-2544.2715	-272.04944	152.47859	-2488.3474	-294.26147	151.1337	-2614.8335	-395.78287	25.692968	-2441.26	-326.82196	53.663536	-2423.7869	-319.21631	37.374485	-2385.9412	-93.914421	504.72961	-2004.8606	-226.67476	492.8707	-1988.9268	-89.714699	442.4895	-1997.0612	-164.33884	309.44717	-1909.0189	-108.06242	93.593071	-1884.4518	-186.44743	130.80586	-1853.6379	-170.61665	52.034431	-1930.4897	-64.740196	84.945427	-1742.2366	-124.67104	123.18648	-1735.0978	-120.61824	138.39189	-1678.5331
527	5.26	-224.05991	1331.4558	-2044.4684	-46.093029	1407.8842	-2149.4949	-404.32486	1385.0833	-2119.3074	-124.79544	956.39001	-2091.4985	-383.02609	973.98688	-2109.604	-290.81012	988.08099	-2279.5845	-161.52786	973.9668	-2275.9888	-393.59296	526.80017	-2292.8767	-266.47107	499.30515	-2267.5479	-395.24045	451.50833	-2330.8032	-305.18286	298.4888	-2388.5413	-351.98404	151.18884	-2536.7734	-272.85211	154.9948	-2479.9854	-293.74246	159.98177	-2606.1875	-395.41275	26.035547	-2440.54	-326.43622	53.30867	-2422.2166	-319.20035	37.596447	-2385.8142	-92.658463	504.1926	-1988.0049	-224.61909	491.64447	-1971.7275	-88.244934	441.51819	-1981.457	-164.34277	306.61847	-1897.4443	-107.82765	91.435715	-1877.9596	-186.8123	126.68314	-1846.3298	-170.62292	54.322887	-1927.1058	-67.354202	74.590111	-1736.0865	-127.27886	112.7202	-1727.2983	-124.02808	124.01988	-1669.5944
528	5.27	-221.63943	1331.505	-2028.5089	-42.83823	1406.3682	-2133.375	-401.98706	1384.834	-2103.9395	-123.45902	957.14325	-2073.8303	-381.48886	972.72357	-2092.6897	-289.15341	987.10999	-2262.2852	-159.60153	974.11945	-2258.7876	-394.20538	524.37262	-2272.811	-267.80481	496.29294	-2247.0286	-396.37827	449.97601	-2312.1799	-305.99948	298.80222	-2374.0095	-352.03641	156.78064	-2527.7446	-273.73788	157.58228	-2470.0916	-292.93936	169.84642	-2595.5051	-394.85577	26.680952	-2439.5657	-325.93079	52.976994	-2420.313	-319.16217	37.830666	-2385.406	-90.799774	504.13614	-1972.1702	-222.02667	490.59335	-1955.5627	-86.249138	441.28238	-1966.3142	-163.57547	304.83441	-1885.8375	-107.13814	90.130737	-1871.5667	-186.56445	123.74302	-1839.0278	-170.451	56.55801	-1924.0377	-68.901367	65.100304	-1730.4034	-128.96957	103.09726	-1719.9332	-126.24683	109.90254	-1660.6606
529	5.28	-219.25931	1332.0228	-2012.5165	-39.524448	1405.1434	-2117.1602	-399.70499	1384.9636	-2088.552	-122.06472	958.67383	-2056.4702	-379.81064	971.75354	-2075.8132	-287.68036	986.44348	-2245.0884	-157.7998	974.87079	-2241.7766	-395.05362	521.82764	-2251.3547	-269.39993	493.06979	-2224.9612	-397.6972	448.55539	-2292.1838	-307.00995	299.20694	-2357.803	-352.05798	162.92496	-2516.9736	-274.72455	160.31042	-2458.5601	-291.92404	180.82047	-2582.4619	-394.13681	27.719261	-2438.2905	-325.33951	52.738991	-2417.8652	-319.07169	37.956215	-2384.5881	-88.36277	504.7338	-1957.0532	-219.08058	490.22986	-1940.5492	-83.8004	441.86685	-1951.3726	-162.17729	303.93494	-1874.4027	-106.29754	89.481865	-1865.9083	-186.02522	121.86095	-1832.4407	-170.13867	58.403061	-1921.5632	-69.461243	57.210236	-1725.4558	-129.83008	94.808136	-1713.5576	-127.5004	97.013947	-1652.5319
530	5.29	-216.96799	1332.9607	-1996.5267	-36.260387	1404.2444	-2100.8372	-397.50284	1385.5146	-2073.144	-120.60214	960.87933	-2039.562	-378.00107	971.13043	-2059.1104	-286.439	986.09473	-2228.1228	-156.20491	976.20905	-2225.0371	-396.11526	519.14423	-2228.4739	-271.18283	489.54404	-2201.1228	-399.07925	447.26862	-2270.7444	-308.21396	299.72684	-2339.8923	-352.12894	169.7052	-2504.3457	-275.83774	163.29674	-2445.3889	-290.82327	192.93387	-2566.8342	-393.306	29.300014	-2436.6956	-324.76242	52.749489	-2414.6292	-318.90579	37.791637	-2383.2446	-85.552864	506.06091	-1941.9716	-215.98366	491.07999	-1926.4165	-81.098785	443.1618	-1936.3978	-160.45251	303.63666	-1863.3862	-105.63403	89.326668	-1861.4351	-185.5737	120.79905	-1827.1327	-169.79999	59.717648	-1919.8291	-69.454124	51.498718	-1721.4812	-130.18495	88.150032	-1708.5785	-128.26207	86.182632	-1645.8809
531	5.3	-214.81232	1334.2216	-1980.5941	-33.171524	1403.6941	-2084.4199	-395.40247	1386.49	-2057.7473	-119.04054	963.5545	-2023.1798	-376.08853	970.84491	-2042.7156	-285.42938	986.03607	-2211.5017	-154.86876	978.03485	-2208.644	-397.29419	516.31976	-2204.2551	-273.06354	485.62222	-2175.3376	-400.36444	446.09125	-2247.8452	-309.56595	300.39948	-2320.3567	-352.31183	177.19493	-2489.855	-277.1033	166.6841	-2430.6392	-289.76337	206.09549	-2548.5161	-392.40991	31.650227	-2434.7788	-324.35342	53.244038	-2410.3557	-318.69016	37.140141	-2381.2705	-82.660965	507.95346	-1926.446	-212.88051	493.41449	-1912.5625	-78.395714	444.88052	-1921.3993	-158.7365	303.67361	-1852.9994	-105.33723	89.540619	-1858.1729	-185.45155	120.2914	-1823.2131	-169.54437	60.550236	-1918.7626	-69.422188	48.034622	-1718.5123	-130.42776	83.086281	-1705.0206	-128.99643	77.717041	-1640.9235
532	5.31	-212.84138	1335.6852	-1964.7894	-30.358698	1403.5033	-2067.9507	-393.42944	1387.8457	-2042.434	-117.33085	966.43823	-2007.3002	-374.10831	970.8642	-2026.7206	-284.59195	986.19806	-2195.3005	-153.78712	980.17151	-2192.6377	-398.43723	513.43848	-2178.9182	-274.95285	481.3208	-2147.6174	-401.43469	445.03888	-2223.5601	-310.9881	301.29742	-2299.3408	-352.60657	185.40919	-2473.5715	-278.52902	170.57822	-2414.3486	-288.78955	220.04326	-2527.502	-391.4567	35.037502	-2432.4883	-324.26944	54.491753	-2404.7834	-318.52072	35.862377	-2378.5459	-79.938614	510.02271	-1910.6399	-209.86745	497.00601	-1898.3564	-75.905731	446.66537	-1906.6768	-157.28596	303.83347	-1843.4082	-105.41062	89.997566	-1855.8582	-185.69504	120.07534	-1820.3922	-169.42627	61.043026	-1918.1641	-69.687683	46.302906	-1716.4014	-130.79254	79.296928	-1702.5885	-129.9321	71.359215	-1637.4717
533	5.32	-211.10533	1337.2437	-1949.1829	-27.870619	1403.6699	-2051.4929	-391.60983	1389.4985	-2027.3097	-115.42522	969.2843	-1991.804	-372.08786	971.17572	-2011.1509	-283.81732	986.49377	-2179.5488	-152.88287	982.41284	-2177.0032	-399.41534	510.7048	-2152.7815	-276.75946	476.87195	-2118.2786	-402.29193	444.22766	-2198.064	-312.39297	302.53198	-2277.002	-352.91418	194.2541	-2455.571	-280.06311	174.98149	-2396.48	-287.79831	234.31964	-2503.8982	-390.41412	39.697113	-2429.5867	-324.61145	56.727768	-2397.6045	-318.54279	33.954166	-2374.8733	-77.530838	511.82056	-1895.2582	-207.01869	501.11432	-1883.5127	-73.749092	448.1962	-1892.7156	-156.22328	303.94293	-1834.7262	-105.75229	90.561264	-1854.1754	-186.19943	119.94003	-1818.2513	-169.45462	61.338093	-1917.8271	-70.191269	45.527985	-1714.9479	-131.25603	76.405251	-1700.9049	-130.98671	66.601471	-1635.1547
534	5.33	-209.64526	1338.8303	-1933.8293	-25.694414	1404.1842	-2035.1102	-389.96573	1391.3458	-2012.4937	-113.30997	971.92242	-1976.5271	-370.04697	971.8006	-1995.9695	-282.96222	986.86444	-2164.2349	-152.00856	984.59027	-2161.679	-400.20352	508.40991	-2126.1917	-278.3786	472.72437	-2087.9426	-403.04486	443.8374	-2171.6055	-313.69724	304.21396	-2253.4749	-353.0239	203.5155	-2435.926	-281.56015	179.78102	-2376.9731	-286.5033	248.271	-2478.0166	-389.28235	45.771023	-2425.4912	-325.40201	60.102188	-2388.436	-318.93045	31.635883	-2369.8345	-75.474762	513.03009	-1881.1001	-204.37619	504.77612	-1868.2577	-71.9422	449.25296	-1880.0223	-155.54156	303.86749	-1827.0004	-106.25859	91.108612	-1852.8944	-186.82959	119.76573	-1816.4772	-169.61646	61.536594	-1917.6055	-70.662239	45.075588	-1713.9839	-131.66884	74.127968	-1699.7	-131.94	62.994621	-1633.6324
535	5.34	-208.47762	1340.4327	-1918.7604	-23.778292	1405.0317	-2018.8573	-388.51477	1393.2904	-1998.0782	-111.03609	974.28503	-1961.3469	-368.01279	972.77716	-1981.1075	-281.87256	987.32074	-2149.3184	-150.98354	986.62482	-2146.5957	-400.85809	506.841	-2099.4536	-279.69815	469.42014	-2057.3884	-403.80414	444.01904	-2144.468	-314.81387	306.38672	-2228.8821	-352.64056	212.89816	-2414.7947	-282.8045	184.80812	-2355.8442	-284.48431	261.10461	-2450.5251	-388.20645	53.246914	-2419.1953	-326.63153	64.655807	-2376.7993	-319.90878	29.471268	-2362.6023	-73.737938	513.55951	-1868.697	-201.9604	507.22171	-1853.1992	-70.437805	449.74704	-1868.9664	-155.1469	303.53592	-1820.1937	-106.86845	91.571014	-1851.87	-187.49329	119.51908	-1814.9166	-169.88585	61.701981	-1917.4194	-70.896461	44.629803	-1713.3759	-131.93805	72.279182	-1698.8278	-132.66681	60.222816	-1632.6868
536	5.35	-207.5834	1342.0913	-1903.9788	-22.073341	1406.1897	-2002.7826	-387.26764	1395.2603	-1984.0973	-108.71423	976.39594	-1946.2401	-366.02573	974.12994	-1966.5004	-280.43073	987.94696	-2134.7336	-149.66084	988.5343	-2131.7012	-401.40732	506.18674	-2072.7783	-280.64328	467.41779	-2027.3335	-404.58066	444.83148	-2116.928	-315.63483	309.00674	-2203.3657	-351.48074	222.09146	-2392.48	-283.58078	189.92897	-2333.2314	-281.37686	272.06207	-2422.4565	-387.5199	61.873573	-2409.3589	-328.31607	70.29039	-2362.1025	-321.76105	28.403135	-2351.9141	-72.281685	513.5274	-1858.2087	-199.82733	508.15945	-1839.0565	-69.192596	449.73508	-1859.6741	-154.91074	302.96381	-1814.1791	-107.548	91.953041	-1851.0016	-188.15747	119.22319	-1813.5062	-170.22424	61.876499	-1917.2303	-70.861778	44.127281	-1713.0062	-132.07211	70.731682	-1698.1893	-133.18359	58.05442	-1632.1967
537	5.36	-206.91241	1343.881	-1889.4542	-20.553505	1407.6307	-1986.9316	-386.21747	1397.2178	-1970.5228	-106.46282	978.33533	-1931.2504	-364.12479	975.85101	-1952.108	-278.61026	988.86609	-2120.4021	-147.98563	990.40314	-2116.967	-401.79126	506.48785	-2046.2579	-281.21155	466.95868	-1998.2628	-405.26682	446.23553	-2089.2405	-316.0368	311.99612	-2177.1106	-349.42517	230.81081	-2369.2959	-283.73053	195.09344	-2309.3325	-277.13586	280.66098	-2394.916	-387.61996	71.102554	-2394.6455	-330.45792	76.722137	-2343.7175	-324.68674	29.39781	-2336.4224	-71.117981	513.18945	-1849.465	-198.09947	507.81668	-1826.4473	-68.217865	449.39838	-1851.9982	-154.72762	302.24451	-1808.7679	-108.26521	92.304153	-1850.2164	-188.83553	118.92281	-1812.2056	-170.58855	62.086601	-1917.0231	-70.639366	43.613369	-1712.7714	-132.13409	69.395393	-1697.688	-133.5636	56.299797	-1632.0751
